<svg width="296" height="177" viewBox="0 0 296 177" fill="none" xmlns="http://www.w3.org/2000/svg">
<path d="M113.65 27.4917C114.19 27.3738 114.532 26.8408 114.414 26.3013L112.493 17.5087C112.375 16.9692 111.842 16.6274 111.302 16.7453C110.763 16.8631 110.421 17.3961 110.539 17.9357L112.247 25.7513L104.431 27.459C103.891 27.5769 103.55 28.1099 103.667 28.6495C103.785 29.189 104.318 29.5308 104.858 29.4129L113.65 27.4917ZM2.52165 35.2719L3.19529 36.011C20.1692 20.5393 65.8602 -2.81068 112.897 27.3565L113.437 26.5147L113.977 25.673C65.868 -5.18164 19.1736 18.7407 1.848 34.5329L2.52165 35.2719Z" fill="#B3B3B3"/>
<path d="M192.288 34.8066C191.911 35.2102 191.933 35.843 192.336 36.22L198.914 42.3632C199.317 42.7402 199.95 42.7186 200.327 42.315C200.704 41.9114 200.682 41.2786 200.279 40.9016L194.432 35.4409L199.893 29.5945C200.27 29.1909 200.248 28.5581 199.845 28.1811C199.441 27.8041 198.808 27.8257 198.431 28.2293L192.288 34.8066ZM193.019 35.4892L193.053 36.4886C216.007 35.7054 265.937 47.5323 282.21 100.99L283.167 100.699L284.123 100.407C267.479 45.7316 216.414 33.6903 192.985 34.4898L193.019 35.4892Z" fill="#B3B3B3"/>
<path d="M120.381 67.2162C120.437 66.6667 120.037 66.1759 119.487 66.1199L110.534 65.2073C109.984 65.1512 109.493 65.5513 109.437 66.1007C109.381 66.6501 109.781 67.1409 110.331 67.1969L118.29 68.0082L117.478 75.9669C117.422 76.5164 117.822 77.0072 118.372 77.0632C118.921 77.1192 119.412 76.7192 119.468 76.1698L120.381 67.2162ZM93.1641 175.241L94.0762 174.831C84.6604 153.883 76.7016 103.192 120.018 67.8899L119.386 67.1147L118.754 66.3396C74.451 102.446 82.6411 154.269 92.252 175.651L93.1641 175.241Z" fill="#B3B3B3"/>
<g clip-path="url(#clip0_341_1678)">
<path d="M121.863 11.1475H131.924L138.665 44.8262C138.895 45.9842 139.525 47.0244 140.445 47.7647C141.364 48.505 142.515 48.8983 143.695 48.8757H168.143C169.324 48.8983 170.474 48.505 171.394 47.7647C172.314 47.0244 172.944 45.9842 173.174 44.8262L177.198 23.7235H134.439M144.5 61.4517C144.5 62.8408 143.374 63.9669 141.985 63.9669C140.596 63.9669 139.47 62.8408 139.47 61.4517C139.47 60.0626 140.596 58.9365 141.985 58.9365C143.374 58.9365 144.5 60.0626 144.5 61.4517ZM172.168 61.4517C172.168 62.8408 171.041 63.9669 169.652 63.9669C168.263 63.9669 167.137 62.8408 167.137 61.4517C167.137 60.0626 168.263 58.9365 169.652 58.9365C171.041 58.9365 172.168 60.0626 172.168 61.4517Z" stroke="black" stroke-width="5.5" stroke-linecap="round" stroke-linejoin="round"/>
</g>
<defs>
<clipPath id="clip0_341_1678">
<rect width="60.3651" height="60.3651" fill="white" transform="translate(119.348 8.63184)"/>
</clipPath>
</defs>
</svg>
